<svg class="full-img" aria-label="logo" enable-background="new 0 0 582 124" version="1.1" viewBox="0 0 582 124" xml:space="preserve" xmlns="http://www.w3.org/2000/svg">
  <g fill="#014C8D">
    <path d="m315.9 97.5c0 0.9 0 1.6-0.1 2.3-0.1 0.6-0.2 1.1-0.4 1.5s-0.4 0.7-0.7 0.9-0.6 0.3-1 0.3h-38.4c-1 0-2-0.3-2.9-1s-1.4-1.9-1.4-3.7v-80.4c0-0.4 0.1-0.7 0.3-0.9 0.2-0.3 0.5-0.5 0.9-0.6 0.4-0.2 1.1-0.3 1.8-0.4 0.8-0.1 1.7-0.2 2.8-0.2s2 0.1 2.8 0.2c0.7 0.1 1.3 0.2 1.8 0.4 0.4 0.2 0.8 0.4 0.9 0.6 0.2 0.3 0.3 0.6 0.3 0.9v75.2h31.2c0.4 0 0.7 0.1 1 0.3s0.5 0.5 0.7 0.9 0.3 0.9 0.4 1.5v2.2z"></path>
    <path d="m393.6 97.8c0 0.8 0 1.5-0.1 2.1s-0.2 1.1-0.5 1.5c-0.2 0.4-0.5 0.7-0.8 0.9s-0.6 0.3-1 0.3h-41.7c-1 0-2-0.3-2.9-1s-1.4-1.9-1.4-3.7v-77.6c0-1.7 0.5-3 1.4-3.7s1.9-1 2.9-1h41.3c0.4 0 0.7 0.1 1 0.3s0.5 0.5 0.7 0.9 0.3 0.9 0.4 1.5 0.2 1.4 0.2 2.3c0 0.8-0.1 1.5-0.2 2.1s-0.3 1.1-0.4 1.5c-0.2 0.4-0.4 0.7-0.7 0.8-0.3 0.2-0.6 0.3-1 0.3h-34v27.3h29.2c0.4 0 0.7 0.1 1 0.3s0.5 0.5 0.7 0.8c0.2 0.4 0.3 0.9 0.4 1.5s0.1 1.4 0.1 2.2 0 1.5-0.1 2.1-0.2 1.1-0.4 1.4c-0.2 0.4-0.4 0.6-0.7 0.8s-0.6 0.2-1 0.2h-29.2v31.1h34.5c0.4 0 0.7 0.1 1 0.3s0.5 0.5 0.8 0.8c0.2 0.4 0.4 0.9 0.5 1.5v2.2z"></path>
    <path d="m486.9 100.8c0 0.4-0.1 0.7-0.2 0.9s-0.4 0.5-0.9 0.7-1.1 0.3-1.9 0.4-1.9 0.1-3.2 0.1c-1.2 0-2.1 0-2.9-0.1-0.7-0.1-1.3-0.2-1.8-0.4-0.4-0.2-0.8-0.5-1-0.8s-0.5-0.8-0.6-1.3l-8-20.5c-0.9-2.3-1.9-4.5-2.9-6.4s-2.2-3.6-3.6-5-3-2.5-4.9-3.3-4.1-1.2-6.8-1.2h-7.7v37c0 0.4-0.1 0.7-0.3 0.9s-0.5 0.5-0.9 0.6c-0.4 0.2-1 0.3-1.7 0.4s-1.7 0.2-2.8 0.2-2-0.1-2.8-0.2c-0.7-0.1-1.3-0.2-1.8-0.4-0.4-0.2-0.8-0.4-0.9-0.6-0.2-0.3-0.3-0.6-0.3-0.9v-80.6c0-1.7 0.5-3 1.4-3.7s1.9-1 2.9-1h18.5c2.2 0 4 0.1 5.5 0.2s2.8 0.2 3.9 0.4c3.4 0.6 6.3 1.5 8.9 2.8s4.7 2.8 6.5 4.8c1.7 1.9 3.1 4.1 3.9 6.6s1.3 5.2 1.3 8.2c0 2.9-0.4 5.5-1.2 7.8s-1.9 4.3-3.4 6.1-3.2 3.3-5.3 4.6-4.4 2.4-6.9 3.3c1.4 0.6 2.7 1.4 3.9 2.4s2.3 2.1 3.3 3.5 2 2.9 2.9 4.6 1.8 3.7 2.7 5.9l7.8 19.1c0.6 1.6 1 2.7 1.2 3.4 0 0.6 0.1 1.1 0.1 1.5zm-17.4-61.1c0-3.4-0.8-6.3-2.3-8.6s-4.1-4-7.7-5.1c-1.1-0.3-2.4-0.5-3.8-0.7-1.4-0.1-3.3-0.2-5.5-0.2h-9.7v29.3h11.3c3 0 5.7-0.4 7.9-1.1s4.1-1.8 5.5-3.1c1.5-1.3 2.6-2.9 3.3-4.7 0.7-1.7 1-3.7 1-5.8z"></path>
    <path d="m565 78.2c0 4.1-0.8 7.7-2.3 10.9s-3.6 5.9-6.2 8.1c-2.7 2.2-5.8 3.9-9.4 5s-7.5 1.7-11.7 1.7c-2.9 0-5.6-0.2-8.1-0.7s-4.7-1.1-6.7-1.8-3.6-1.5-4.9-2.2c-1.3-0.8-2.2-1.4-2.8-1.9-0.5-0.5-0.9-1.2-1.1-2s-0.4-1.9-0.4-3.3c0-1 0-1.8 0.1-2.5s0.2-1.2 0.4-1.6 0.4-0.7 0.7-0.8c0.3-0.2 0.6-0.2 0.9-0.2 0.6 0 1.5 0.4 2.7 1.1s2.6 1.6 4.4 2.5 4 1.7 6.5 2.5 5.5 1.2 8.8 1.2c2.5 0 4.8-0.3 6.9-1s3.9-1.6 5.4-2.9c1.5-1.2 2.7-2.7 3.5-4.5s1.2-3.8 1.2-6.1c0-2.5-0.6-4.6-1.7-6.3s-2.6-3.3-4.4-4.6-3.9-2.5-6.3-3.6-4.8-2.2-7.2-3.4c-2.5-1.1-4.9-2.4-7.2-3.8s-4.4-3-6.2-4.9-3.3-4.1-4.5-6.6c-1.1-2.5-1.7-5.6-1.7-9.1 0-3.6 0.7-6.9 2-9.7s3.2-5.2 5.5-7.2c2.4-1.9 5.2-3.4 8.4-4.4s6.8-1.5 10.5-1.5c1.9 0 3.9 0.2 5.8 0.5s3.8 0.8 5.5 1.3c1.7 0.6 3.3 1.2 4.6 1.9s2.2 1.3 2.7 1.7c0.4 0.4 0.7 0.8 0.8 1s0.2 0.6 0.3 0.9c0.1 0.4 0.2 0.8 0.2 1.4s0.1 1.2 0.1 2.1c0 0.8 0 1.5-0.1 2.1s-0.2 1.2-0.3 1.6-0.3 0.7-0.6 0.9c-0.2 0.2-0.5 0.3-0.8 0.3-0.5 0-1.3-0.3-2.3-0.9-1.1-0.6-2.3-1.3-3.9-2.1-1.5-0.8-3.3-1.5-5.4-2.1s-4.4-1-7-1c-2.4 0-4.5 0.3-6.3 1-1.8 0.6-3.3 1.5-4.4 2.6-1.2 1.1-2 2.4-2.6 3.8-0.6 1.5-0.9 3-0.9 4.7 0 2.4 0.6 4.5 1.7 6.2s2.6 3.3 4.5 4.6 4 2.6 6.3 3.7c2.4 1.1 4.8 2.3 7.3 3.4s4.9 2.4 7.3 3.8 4.5 3 6.3 4.8c1.9 1.9 3.4 4.1 4.5 6.6 1.1 2.3 1.6 5.3 1.6 8.8z"></path>
  </g>
  <path d="m72.1 98.1c0 1.5 0 2.8-0.1 3.7s-0.2 1.6-0.5 2c-0.2 0.4-0.5 0.6-0.8 0.5s-0.8-0.3-1.2-0.6l-53.1-36.5c-0.4-0.3-0.8-1-1.1-2.2s-0.4-2.8-0.4-5c0-1 0-1.9 0.1-2.7 0.1-0.9 0.2-1.6 0.3-2.1 0.2-0.5 0.3-1 0.5-1.4s0.4-0.7 0.7-0.8l52.7-36.3c1-0.7 1.7-0.6 2.1 0.1s0.6 2.5 0.6 5.4c0 1.8 0 3.2-0.1 4.2s-0.2 1.9-0.3 2.5c-0.2 0.6-0.4 1.1-0.7 1.5-0.3 0.3-0.7 0.7-1.2 1.1l-43.2 28.7 43 28.4c0.6 0.4 1 0.8 1.4 1.1 0.3 0.3 0.6 0.8 0.8 1.5 0.2 0.6 0.3 1.5 0.4 2.6 0 1.1 0.1 2.5 0.1 4.3z" fill="#014C8D"></path>
  <path d="m243.8 55.4c-0.3-1.2-0.7-1.9-1.1-2.2l-52.9-36.3c-0.5-0.4-0.9-0.6-1.3-0.6-0.4-0.1-0.6 0.1-0.8 0.5s-0.3 1-0.4 1.9-0.1 2.1-0.1 3.7c0 1.8 0 3.2 0.1 4.3 0 0.4 0 0.7 0.1 1.1v65.2c0 0.3-0.1 0.7-0.1 1.1 0 1-0.1 2.4-0.1 4.1 0 1.4 0 2.5 0.1 3.4s0.2 1.5 0.4 2c0.2 0.4 0.5 0.6 0.8 0.6 0.4 0 0.8-0.2 1.3-0.5l52.7-36.3c0.3-0.2 0.5-0.4 0.7-0.8 0.2-0.3 0.4-0.8 0.5-1.4s0.2-1.3 0.3-2.2c0.1-0.8 0.1-1.8 0.1-2.8 0.2-1.9 0-3.6-0.3-4.8zm-44.6 27.1v-44.4l33.5 22-33.5 22.4z" fill="#014C8D"></path>
  <path d="m169.1 55.2c-1.3-1.6-1.9-1.1-2.8-2.7-0.2-0.3-0.8-3.8-0.8-4.2-1.9-9.7-7.1-17.3-14.9-23.1-4.4-3.3-9.2-6.2-14.8-6.7-1.3-0.1-12.3-1.8-16.8 2.1-3.2 2.8-3 7.5 0.5 9.4 4.6 2.6 9.4 2.9 14.3 0.9 0.8-0.3 1.3-0.9 1.8-1.5 1-1.4 0.7-2.9-0.8-3.8-0.6-0.4-1.4-0.5-2.1-0.7-1.9-0.5-3.6 0-5.3 0.7-1 0.4-1.9 0.2-2.4-0.9s-0.1-2.2 0.9-2.8l0.6-0.3c3.4-1 6.8-0.9 10 0.7 4.3 2.2 5 8.1 1.4 11-1.9 1.6-4.2 2.5-6.7 2.7-3.6 0.3-7.2-0.2-10.6-1.4-5.1-1.7-7.8-5.1-7.8-10 0-3.9-1.4-3.7-4-2.2-0.1 0.1-0.3 0.2-0.4 0.3-4 2.3-7.5 5.3-10.3 9-3.7 4.9-5.9 10.3-7.1 16.5-0.5 2.4-1.8 13 2.4 24.4 0.5 1.2 1.2 2.3 1.8 3.5 0.4 0.8 0.6 1.6 0.4 2.5-0.5 1.9-0.3 3.8 0.1 5.7 1.1 4.6 3.9 8.2 9.3 8.5 0.8 0 1.5 0.4 2 1.1 1.7 1.9 3.2 3.8 5.2 5.4 14.7 11.6 32.8 6.1 36 4.2 11-6.2 17.5-15.4 18.7-28.2 0.1-1.4-0.3-3.2 0.7-4.3 1.8-1.8 2.8-3.6 3.2-6 0.7-2.4-0.4-8.3-1.7-9.8zm-48.5 29.9c-2.9-0.1-5.1-2.5-5-5.4 0.1-2.8 2.4-5.1 5.1-5.1 2.8 0 5.2 2.4 5.1 5.3 0 3-2.4 5.3-5.2 5.2zm18.6 9.4c-4.1 0.9-8-1.1-9.8-5-0.5-1.1-0.2-2 0.6-2.7 0.9-0.8 1.7-0.3 2.4 0.4 0.5 0.5 0.9 1.1 1.3 1.6 1.4 1.7 3.1 2.2 5 1.7 1.9-0.6 3.1-2.3 3.3-4.3v-1.7c0.1-1 0.1-2.1 1.4-2.2 1.2-0.1 2 0.6 2.4 1.8 0.2 0.6 0.2 1.2 0.2 1.4 0.1 4.3-3 8.2-6.8 9zm8.3-16.7c-3.1 0.2-5.7-2.3-5.5-5.5 0.2-2.7 2.4-4.8 5.1-4.8 2.8 0 5.2 2.4 5.2 5.2s-2 4.9-4.8 5.1z" fill="#5FA80A"></path>
</svg>
